<svg id="Layer_1" data-name="Layer 1" xmlns="http://www.w3.org/2000/svg" viewBox="0 0 435.91 213.15"><title>i-exceed</title><ellipse cx="120.78" cy="106.57" rx="95.06" ry="93.3" style="fill:#fff"/><path d="M283.08,115.38H246.53a9.55,9.55,0,0,0,4.92,7.61,21,21,0,0,0,11.16,2.74,50.12,50.12,0,0,0,15.75-2.36L280.61,135q-8.57,3.6-20.47,3.6Q246,138.55,238,131t-8-20.59a30.06,30.06,0,0,1,7.71-20.65q7.7-8.7,20.75-8.69,12,0,18.67,7.75t6.64,19.92A27.3,27.3,0,0,1,283.08,115.38Zm-36.67-11.92h21.15a13.38,13.38,0,0,0-2.28-7.4q-2.28-3.51-7.73-3.51a10,10,0,0,0-7.46,3A13.9,13.9,0,0,0,246.41,103.46Z" style="fill:#fff"/><path d="M343.83,115.38H307.26a9.61,9.61,0,0,0,4.93,7.61,21,21,0,0,0,11.16,2.74,50.12,50.12,0,0,0,15.75-2.36L341.35,135q-8.55,3.6-20.47,3.6-14.11,0-22.13-7.54t-8-20.59a30.1,30.1,0,0,1,7.7-20.65q7.71-8.7,20.76-8.69,12,0,18.67,7.75t6.64,19.92A27.86,27.86,0,0,1,343.83,115.38Zm-36.68-11.92H328.3a13.38,13.38,0,0,0-2.28-7.4c-1.52-2.34-4.09-3.51-7.73-3.51a10,10,0,0,0-7.45,3A13.85,13.85,0,0,0,307.15,103.46Z" style="fill:#fff"/><path d="M392.3,57.23h17.44v63.66q0,9,.45,16.42H394.67L394,129h-.23q-5.73,9.57-18,9.56a22.07,22.07,0,0,1-17.18-7.9q-7-7.91-7-20.33,0-13.23,7.4-21.23a23.58,23.58,0,0,1,18-8q10.58,0,15.07,6.29h.22Zm0,55.11v-6.41a11.94,11.94,0,0,0-3-8.33,10,10,0,0,0-7.71-3.25,10.88,10.88,0,0,0-9.06,4.24q-3.31,4.25-3.32,11.16c0,4.58,1.11,8.21,3.32,10.92a11.41,11.41,0,0,0,16.37,1.09C391.18,119.8,392.3,116.65,392.3,112.34Z" style="fill:#fff"/><path d="M208.08,138.78q-13.62,0-21.71-7.67t-8.09-20.56q0-12.89,8.71-21.06t23.56-8.18c.59,0,1.18,0,1.76,0-11.22-39.26-47.95-68-91.54-68A95.4,95.4,0,0,0,40.11,57.19a9.49,9.49,0,0,1,5.71,2.51,9.2,9.2,0,0,1,0,13,9.79,9.79,0,0,1-7.09,2.59A9.93,9.93,0,0,1,32,73.06a92.12,92.12,0,0,0-1.94,61.6V82.54H47.54v55H31.08c13,36.3,48.26,62.32,89.69,62.32,41,0,75.9-25.44,89.26-61.13C209.39,138.77,208.74,138.78,208.08,138.78ZM114.6,115.61H78A9.63,9.63,0,0,0,83,123.23,21.13,21.13,0,0,0,94.13,126a50.41,50.41,0,0,0,15.75-2.35l2.25,11.58q-8.55,3.6-20.47,3.6-14.13,0-22.13-7.54t-8-20.58A30.09,30.09,0,0,1,69.22,90q7.69-8.7,20.75-8.68,12,0,18.67,7.75T115.28,109A27.39,27.39,0,0,1,114.6,115.61Zm42.3,21.94q-8.27-14-10.13-18.23h-.34q-1.45,3.27-9.78,18.23H117.42l19.34-28.13L117.87,82.54h19.46q7.88,12.38,10.34,17.21H148q1.58-3.48,9.45-17.21h19l-18.78,26.1,19,28.91Z" style="fill:#f47a32"/><path d="M89.07,92.77a10,10,0,0,0-7.45,3,13.91,13.91,0,0,0-3.69,7.91H99.08a13.4,13.4,0,0,0-2.28-7.4C95.29,94,92.71,92.77,89.07,92.77Z" style="fill:#f47a32"/><path d="M215.08,94.79a31.94,31.94,0,0,0-3.74-.21,14.7,14.7,0,0,0-11,4.27,15,15,0,0,0-4.19,11q0,7,4.36,11.16a15.53,15.53,0,0,0,11.16,4.14c.77,0,1.53,0,2.28-.08a92,92,0,0,0,1.12-30.3Z" style="fill:#f47a32"/></svg>